<?xml version="1.0" encoding="UTF-8"?>
<svg id="Layer_1" data-name="Layer 1" xmlns="http://www.w3.org/2000/svg" viewBox="0 0 229.73 142.88">
  <defs>
    <style>
      .cls-1 {
        fill: #0d0d0d;
      }
    </style>
  </defs>
  <path class="cls-1" d="m72.53,1.07c-.1,0-.2,0-.3,0,.16,0,.33,0,.49,0-.06,0-.13,0-.19,0Z"/>
  <path class="cls-1" d="m91.45,45.86v35.74h19.17l2.02-10.72h8.62c-3.16,16.35-19.42,27.66-40.03,27.66-1.41,0-2.84-.06-4.26-.16-11.41-.88-21.91-4.56-29.56-10.35-8.43-6.39-12.86-14.93-12.82-24.71.05-10.53,4.52-20.26,12.58-27.4,7.72-6.84,18.02-10.87,29-11.34.69-.03,1.39-.04,2.08-.04,12.88,0,26.71,5.06,36.98,13.54.52.43.65.52.77.61.06.04.14.1.73.59l.3.25h.39s21.62,0,21.62,0V1.06h-22.31v11.03C107.36,6.07,91.29,0,72.53,0h-.31C51.83.07,31.96,8.42,17.72,22.89,6.11,34.7-.18,49.14,0,63.55c.2,15.5,7.67,29.93,21.02,40.65,12.78,10.26,30.1,16.14,47.52,16.14,2.15,0,4.33-.09,6.48-.26,17.25-1.4,32.54-5.34,43.34-11.13l-.04,4.77h23.69v-42.81h8.18v49.64h-12.34v22.33h55.1v-22.33h-12.35v-49.66h27.91l1.94,10.72h19.27v-35.74H91.45ZM72.53,1.07c.06,0,.13,0,.19,0-.16,0-.33,0-.49,0,.1,0,.2,0,.3,0Z"/>
</svg>